<?xml version="1.0" encoding="UTF-8"?>
<svg width="1200pt" height="1200pt" version="1.1" viewBox="0 0 1200 1200" xmlns="http://www.w3.org/2000/svg">
 <path d="m1003.8 123.82c-75.777-81.223-197.16-79.434-286.14-21.285-74.074 48.406-115.55 122.46-143.76 202.61-38.781-71.078-91.598-132.11-172.93-159.82-56.938-19.402-124.37-17.676-176.78 13.781-50.184 30.121-81.652 83.676-91.875 140.48-20.191 112.2 13.043 233.83 56.211 337.07 44.57 106.59 108.42 204.16 188.66 287.41 89.914 93.297 198.76 165.35 319.11 212.95 12.172 4.8125 25.453 1.7891 36.328-5.2812 4.6523-2.7188 8.9258-6.5273 12.73-11.422 0.003906-0.003906 0.003906-0.007812 0.007812-0.011719 1.1992-1.543 2.4727-2.9258 3.5586-4.6992 63.887-104.34 120.65-212.92 171.37-324.24 50.941-111.8 101.64-227.64 134.68-346.21 30.352-108.89 30.426-233.87-51.172-321.32zm-47.551 325.94c-32.094 100.39-72.773 198.68-116.43 294.55-45.09 99.004-95.312 195.64-150.74 289.25-162.77-73.453-297.39-204.97-381.42-361.88-43.414-81.062-75.996-172.62-85.906-264.43-4.5938-42.551-5.4648-91.648 15.5-130.4 20.203-37.344 56.809-53.809 98.473-50.656 116.34 8.7969 168.33 134.29 202.79 228.55 14.793 40.457 78.324 47.957 89.871 0 21.586-89.66 43.496-191.49 115.3-255.7 56.184-50.242 145.48-68.387 198.56-4.4844 59.867 72.082 40.004 173.88 14.012 255.19z" fill="#147f3d"/>
</svg>
